<svg xmlns="http://www.w3.org/2000/svg" viewBox="0 0 137.29 71.64"><defs><style>.cls-1{fill:#c72b2d;}.cls-2{fill:#fff;}</style></defs><title>brahmalogo</title><g id="MENU"><path class="cls-1" d="M137.29,55.54C89.43,51.93,50.45,75.63,0,71.06V15.86C47.7,18.51,88.91-3.6,137.29.51Z"/><path class="cls-2" d="M16.34,65.73c4.93,0,7.81-3.15,7.58-7.7,0-3.81,0-6.32,0-10.12a3.64,3.64,0,0,0-.24-1.46,3.17,3.17,0,0,0-.79-1.4,4.27,4.27,0,0,0-1.46-.93,12.77,12.77,0,0,0-2.34-.63,6.92,6.92,0,0,0,3.71-1.83,5.27,5.27,0,0,0,1.08-3.57c0-4.16,0-6.34,0-10.5q0-3.33-1.59-4.72c-1.07-.93-2.76-1.32-5.07-1.22-4.13.17-6.2.26-10.32.25-.12,14.27-.25,29.25-.37,43.72C10.11,65.78,12.47,65.78,16.34,65.73Zm-3.08-38,1.89-.06a2.59,2.59,0,0,1,2,.53c.36.38.54,1.33.53,2.86,0,2.34,0,3.65,0,6a12.86,12.86,0,0,1-.13,2,3,3,0,0,1-.4,1.16,1.34,1.34,0,0,1-.8.54,5.76,5.76,0,0,1-1.31.15H13.18C13.21,36.5,13.24,32,13.26,27.69Zm-.13,18.64H15.4c.94,0,1.55.21,1.84.68a7.25,7.25,0,0,1,.41,3.11c0,2,0,3.84,0,5.82a19,19,0,0,1-.1,2,2.73,2.73,0,0,1-.38,1.21,1.35,1.35,0,0,1-.77.57,4.44,4.44,0,0,1-1.35.16H13C13.07,55.56,13.1,50.59,13.13,46.33Z"/><path class="cls-2" d="M32.41,45.26,34.48,45a1.78,1.78,0,0,1,1.68.43,3.41,3.41,0,0,1,.49,2.14c0,4.08,0,11,0,16.52,2.14-.29,4.26-.61,6.38-1,0-5.69,0-12.91,0-16.86v-.13C43,43.33,41.9,42,39.64,42a6,6,0,0,0,2.7-2.25,8.61,8.61,0,0,0,.7-4c0-4.28,0-6.28,0-10.57a14.82,14.82,0,0,0-.15-2.55,3.92,3.92,0,0,0-.7-1.54,3.84,3.84,0,0,0-1.94-1.42A4.35,4.35,0,0,0,39,19.44c-.46,0-.92,0-1.36,0l-1.83.27c-3.9.56-5.85.85-9.73,1.22C26,34,26,51.45,26,65.25c2.15-.18,4.27-.38,6.39-.62C32.38,58.23,32.39,50.23,32.41,45.26Zm0-19L34.59,26c.91-.12,1.5.05,1.76.53a23.24,23.24,0,0,1,.4,5c0,.27,0,.41,0,.68-.05,1.73-.07,3.23-.13,5,0,1.24-.79,2-2.36,2.18l-1.86.23C32.4,35.35,32.41,30.44,32.42,26.24Z"/><path class="cls-2" d="M51.12,54.09c2.69-.5,4-.76,6.74-1.3.33,2.72.57,4.7.89,7.36q3.22-.67,6.43-1.38c-1.6-14.27-3.29-29.29-4.9-43.55-3.93.81-7.69,1.59-11.56,2.31C47.13,32.39,45.42,48.14,43.84,63q3.22-.54,6.43-1.14C50.57,59,50.8,57,51.12,54.09Zm3.1-31.42.4-.08,2.7,23.82c-2.18.43-3.28.64-5.46,1.05Q53,35.07,54.22,22.67Z"/><path class="cls-2" d="M72.37,37.92,76.6,37c0,5.21,0,13,0,19.21,2.12-.47,4.25-.93,6.37-1.38,0-14,.09-31,.13-44.33-2.56.5-3.84.76-6.4,1.28,0,6.1,0,12.63,0,18.73l-4.24.88c0-6.1,0-12.63,0-18.74L66,14C66,27.41,66,44.53,66,58.6l6.37-1.42C72.34,51,72.36,43.13,72.37,37.92Z"/><path class="cls-2" d="M91.61,27.48l.09,0c1.59,8.88,2.72,16.09,4.2,24.86L99,51.8c1.54-8.95,2.55-15.83,4.56-25.8l.1,0c-.05,7.81-.1,16.93-.14,25.13q3.15-.47,6.34-.81c.1-13.91.23-30.34.33-43.77-3.09.28-4.62.44-7.72.85C100.79,15.09,99.14,23,97.51,30.7,95.9,23.49,94.36,16,92.73,8.81c-3,.51-4.53.78-7.58,1.35,0,13.49-.08,30.24-.13,44.26q3.24-.68,6.49-1.29C91.54,44.81,91.58,35.34,91.61,27.48Z"/><path class="cls-2" d="M117.79,42.48c2.68-.17,4-.22,6.69-.26.3,2.8.47,4.34.77,7.09q3.15,0,6.36.06c-1.46-14.47-2.92-29-4.41-43.48-3.82,0-7.75,0-11.55.28-1.69,14.63-3.37,29.4-5,44q3.14-.33,6.32-.56C117.28,46.89,117.46,45.3,117.79,42.48Zm3.34-31,.34,0c.86,8.28,1.67,16,2.52,24.32-2.16,0-3.25.08-5.42.2C119.44,27.66,120.26,19.84,121.13,11.5Z"/></g></svg>