<svg id="_4" data-name="4" xmlns="http://www.w3.org/2000/svg" xmlns:xlink="http://www.w3.org/1999/xlink" viewBox="0 0 1920 1080"><defs><style>.cls-1{fill:none;}.cls-2{opacity:0.3;}.cls-3{clip-path:url(#clip-path);}.cls-4{fill:#b22029;}</style><clipPath id="clip-path"><rect class="cls-1" x="2.06" y="-6.49" width="1951.94" height="1102.53"/></clipPath></defs><title>redsunshine</title><g class="cls-2"><g class="cls-3"><path class="cls-4" d="M773,2133.48c-14.62-136.43-30.5-256.74-46.82-393l-54.11-453.89-55.2-453.77-2.18.24,46.48,454.75,47.57,454.62C723,1878.94,735,1999.7,750.91,2136c3.26,24.52,8.33,39.32,15.94,38.06S774.59,2149.15,773,2133.48Z"/><path class="cls-4" d="M786.42,1262.65,663.58,822.35l-2.12.57L775.83,1265.5l115.43,442.29c34.61,133,68.38,266.13,104.65,398.63,7.17-1.91,14.33-3.82,21.49-5.83-35-132.83-72.53-265-109.2-397.35Z"/><path class="cls-4" d="M895.83,1221.77,708.15,805l-2,.88,179.65,420.34,180.65,419.89c54.28,126.37,107.76,253.09,163.63,378.77,6.82-3,13.51-6.14,20.28-9.2-54.63-126.12-111.64-251.19-167.84-376.62Z"/><path class="cls-4" d="M997.84,1164.89,749.59,781.07l-1.85,1.17,240.84,388.52,241.77,387.93c72.71,116.83,144.68,234.12,218.85,350,6.28-4,12.5-8,18.72-12.07-73-116.55-148.26-231.71-222.75-347.33Z"/><path class="cls-4" d="M1379.24,1447.65c72.32,84.52,185.69,218.06,258.51,302.15l-7.62-44.26c-78.54-90.38-158.39-179.63-237.65-269.4l-302.34-342.82L787,751.21l-1.65,1.44,296.55,347.86Z"/><path class="cls-4" d="M1170.61,1008.67,819.42,716.06,818,717.74,1163.51,1017l346.23,298.46c104.06,89.81,207.55,180.28,312.73,268.78,4.8-5.66,9.71-11.23,14.43-17-104.34-89.5-210.36-177-315.8-265.19Z"/><path class="cls-4" d="M1618.86,1165.17q41.61,26.16,83.16,52.42l10.82-16.06q-42.39-25.62-84.76-51.29L1237.44,912.88,846.22,676.44l-1.15,1.86,386.6,243.91Z"/><path class="cls-4" d="M1289.09,808.12,866.75,633.23l-.86,2,418.91,183,419.33,181.95c125.69,54.63,251,110.06,377.41,163.12,2.88-6.84,5.58-13.77,8.37-20.65-125.75-54.18-252.5-106-378.92-158.61Z"/><path class="cls-4" d="M1324.39,696.79,880.55,587.43l-.55,2.12,441.67,117.86L1763.6,824.2c132.1,35,235.5,64.21,368,97.58q2.72-10.8,5.28-21.65c-132.12-34.54-236.4-60-368.94-92.92Z"/><path class="cls-4" d="M1342.54,581.41,887.3,540.07l-.22,2.18,454.37,50.07,454.47,49c135.4,14.67,270.72,30.19,406.29,43.21.71-7.39,1.43-14.78,2-22.2-135.39-14.21-271-25.91-406.58-38.47Z"/><path class="cls-4" d="M534.57,2155.16c5.57-137,8.42-268.69,12.28-405.8L560,1292.45l12-457-2.19-.08L549,1292.05l-19.71,456.68c-6,137.06-12.72,268.61-17,405.73-1.17,24.62,2.86,37.37,9.57,37.37S533.84,2170.84,534.57,2155.16Z"/><path class="cls-4" d="M444,1278.83l80.65-449.95-2.15-.4-89.28,448.31L345,1725.31c-26.66,135.17-49.61,248.12-74.56,383.62,7.28,1.43,14.58,2.75,21.89,4.08,26.26-135.23,45.36-248.89,69.91-384.44Z"/><path class="cls-4" d="M331.4,1247.91,478.83,815.23l-2.07-.73L321.05,1244.28,166.38,1674.42c-46.85,130.07-94.55,259.85-139.74,390.5,7,2.51,14,4.93,21,7.35,46.49-130.19,90.47-261.26,135.3-392Z"/><path class="cls-4" d="M224.72,1200.41,435.57,794.83l-1.94-1L215,1195.26l-217.62,402c-66.1,121.92-133,243.41-197.5,366.16,6.52,3.54,13.08,7,19.65,10.43,65.76-122.08,129.15-245.42,193.34-368.34Z"/><path class="cls-4" d="M126.41,1137.4,395.87,768.15l-1.76-1.31-276.5,364L-158,1495.51c-83.91,110.88-168.55,221.22-251,333.19,5.91,4.48,11.87,8.87,17.84,13.26,83.62-111.09,165.07-223.8,247.24-336Z"/><path class="cls-4" d="M-284,1384,38.69,1060.31l322-324.5-1.54-1.56L31,1052.51l-327.35,319c-99.83,97.19-200.3,193.73-298.85,292.21q7.74,8,15.6,15.83C-480,1582.15-382.35,1482.77-284,1384Z"/><path class="cls-4" d="M-36.43,970.9,330.68,698.53l-1.29-1.77L-42.88,962-414.5,1228.2c-113.38,81.1-215.64,152.93-327.94,235.51q6.42,9.07,13,18.06c113.21-81.4,213.17-156.5,325.31-239.38Z"/><path class="cls-4" d="M-97.25,871.21l403.91-214-1-1.95L-102.29,861.47-509.72,1068.7c-124.15,63-248.72,125.29-372,190,3.31,6.64,6.62,13.27,10,19.85,124.07-63.39,246.87-129.22,370.09-194.23Z"/><path class="cls-4" d="M643.55,2123.82l-5-146.57-9.26-228.36L592.56,835.43l-1.09,0,29,913.74,7.18,228.43,5,146.53c.65,13.91,2,24.64,6.35,24.64S644.11,2136.07,643.55,2123.82Z"/><path class="cls-4" d="M891.23,2130.64l-34.12-180.15L813.6,1726.12,639.91,828.58l-1.08.2,166.15,899,41.46,224.76,34.06,180.27c2.25,12.28,5.64,23.7,9.86,22.85S893.37,2140.74,891.23,2130.64Z"/><polygon class="cls-4" points="1058.95 1894.74 1113.48 2049.99 1125.87 2052.27 1069.19 1891.14 992.43 1675.87 685.68 814.68 684.64 815.04 984.15 1678.78 1058.95 1894.74"/><path class="cls-4" d="M1161.66,1599.29,728.83,794.05l-1,.52,426.05,808.85,106.44,202.25,86.46,162.57c3.22-1.72,6.4-3.5,9.6-5.24l-86.48-162.43Z"/><path class="cls-4" d="M1317.45,1498.13l-549.05-731-.88.66,542.89,735.54,135.66,183.93,110,147.77q4.37-3.28,8.74-6.59l-110-147.66Z"/><path class="cls-4" d="M1456.24,1374.67l-652.77-640-.77.78,647.37,645.49,161.78,161.43,130.81,129.4c2.55-2.6,5.17-5.15,7.7-7.77l-130.87-129.35Z"/><path class="cls-4" d="M1574.88,1231.74,833.24,697.2l-.64.89,737.12,540.75L1754,1374.09l148.51,108.05c2.13-3,4.29-5.9,6.4-8.87l-148.53-108Z"/><path class="cls-4" d="M1670.66,1072.59,857.05,655.71l-.51,1,810.09,423.7,202.48,106,162.5,84.18c1.65-3.25,3.2-6.56,4.83-9.82l-162.34-84Z"/><path class="cls-4" d="M1741.41,900.84,874.34,611.11l-.35,1,864.6,297,216.13,74.33L2127,1041.91c1.15-3.46,2.24-6.94,3.37-10.41l-172.2-58.3Z"/><path class="cls-4" d="M1785.51,720.4l-900.79-156-.19,1.08L1784,729l224.85,41,177.89,31.62c.61-3.6,1.22-7.19,1.8-10.8l-177.79-31.51Z"/><path class="cls-4" d="M1347.05,523.2l-457.11-2,0,2.2,457,10.71,457,9.62c137,3,274,6.8,411.07,8.06.09-7.42,0-14.85-.06-22.28-136.9-2.53-273.84-2.49-410.77-3.32Z"/><path class="cls-4" d="M886.69,480.2l.3,2.17S2035.92,335.23,2171.2,315.93c-1-7.35-2.16-14.7-3.31-22C2032.53,312,886.69,480.2,886.69,480.2Z"/><path class="cls-4" d="M878.15,439.44l.69,2.08s1130.7-359.94,1259.91-403c-2.35-7-4.68-14.1-7.13-21.13C2002.1,59.3,878.15,439.44,878.15,439.44Z"/><path class="cls-4" d="M1801.26,441.06,889,501.22l.07,1.1,912.69-52.5L2030,436.77l181.61-11.16c-.25-3.64-.55-7.28-.83-10.92l-181.44,11.25Z"/><path class="cls-4" d="M884.53,460.68l.25,1.07L2175.69,170.21c-.85-3.55-1.69-7.1-2.56-10.64Z"/><path class="cls-4" d="M-145.29,750.24l436.81-134.7.67,2.09L-142,760.69l-434.49,142C-705.88,945.09-835,988.3-965,1029.11c-2.22-7.09-4.46-14.17-6.59-21.3C-842.06,965.88-711.79,926.34-581.78,886Z"/><path class="cls-4" d="M-161.76,694.23l446.81-96.55.48,2.14-444.87,105.1L-604.45,809c-133.43,31.27-266.68,63.39-400.49,93-1.62-7.25-3-14.55-4.55-21.82C-876.08,849.33-742.1,821-608.31,791.85Z"/><path class="cls-4" d="M279.73,556.84l.15,2.19S-874.62,653-1011,662.09c-.5-7.41-.93-14.83-1.33-22.25C-876.12,629.49,279.73,556.84,279.73,556.84Z"/><path class="cls-4" d="M-623.13,707.91l904.91-130,.16,1.08L-621.84,716.59l-225.93,34.49-180,26.67c-.51-3.61-1-7.23-1.45-10.85l179.85-26.56Z"/><path class="cls-4" d="M277.8,537.3l0,1.1-1323.3-17.94c.09-3.65.18-7.29.29-10.94Z"/><path class="cls-4" d="M408.31,2125.83l17.12-156.62L449.81,1742,547.68,833l-1.09-.12L441.09,1741l-26.45,227-17.21,156.66c-2,17-2.56,28.23,2.44,28.59S407.28,2134.69,408.31,2125.83Z"/><path class="cls-4" d="M267.46,1706.65,501,822.78l-1.06-.29L259,1704.37l-60.31,220.45-41.31,151.37q5.28,1.42,10.58,2.81l41.21-151.36Z"/><path class="cls-4" d="M92.49,1644.31,456.31,805.62l-1-.44L84.46,1640.78-8.33,1849.65l-75.11,171.08c3.33,1.48,6.68,2.92,10,4.38l75-171.1Z"/><path class="cls-4" d="M-71.1,1556.35,414.75,782l-.92-.59L-78.51,1551.65l-123.16,192.53L-302.32,1903c3.08,2,6.17,3.9,9.26,5.85L-192.49,1750Z"/><path class="cls-4" d="M-219.6,1444.78,377.23,752.29l-.83-.72L-226.22,1439l-150.72,171.81L-501,1753.5c2.74,2.41,5.51,4.79,8.26,7.18l124-142.73Z"/><path class="cls-4" d="M-349.62,1312.13,344.6,717.32l-.71-.84-699.19,589-174.85,147.18L-674.7,1575.37c2.34,2.8,4.7,5.59,7.05,8.37l144.53-122.84Z"/><path class="cls-4" d="M-458.21,1161.44,317.6,677.84l-.58-.93L-462.82,1154l-195,119.2-161.29,99.54c1.88,3.13,3.75,6.27,5.66,9.38l161.33-99.69Z"/><path class="cls-4" d="M-542.89,996.13,296.84,634.75l-.42-1L-546.32,988.06-757,1076.56l-173.85,73.9q2.07,5.07,4.19,10.12l173.91-74Z"/><path class="cls-4" d="M393.13-1075.54c14.62,136.43,30.51,256.75,46.83,393l54.11,453.89,55.2,453.77,2.18-.25L505-229.88,457.4-684.51C443.19-821,431.17-941.76,415.26-1078.06c-3.25-24.52-8.32-39.32-15.93-38S391.59-1091.21,393.13-1075.54Z"/><path class="cls-4" d="M379.76-204.71l122.83,440.3,2.12-.57L390.35-207.55,274.92-649.84c-34.61-133-68.38-266.13-104.66-398.64-7.16,1.91-14.33,3.83-21.49,5.84,35,132.82,72.53,265,109.21,397.35Z"/><path class="cls-4" d="M270.35-163.83,458,253l2-.88L280.39-168.23,99.74-588.12C45.45-714.49-8-841.22-63.89-966.9c-6.82,3-13.52,6.14-20.28,9.2C-29.54-831.58,27.46-706.5,83.67-581.07Z"/><path class="cls-4" d="M168.33-106.95,416.59,276.88l1.85-1.17L177.6-112.81-64.17-500.75c-72.71-116.82-144.68-234.11-218.86-350-6.28,4-12.49,8-18.71,12.07C-228.71-722.14-153.48-607-79-491.36Z"/><path class="cls-4" d="M-213.06-389.71C-285.38-474.23-357.19-559.18-430-643.27l-34-4.33c78.55,90.38,158.4,179.64,237.65,269.4L76-35.37,379.22,306.74l1.65-1.44L84.32-42.56Z"/><path class="cls-4" d="M-4.43,49.28l351.19,292.6,1.42-1.67L2.67,40.92-343.56-257.53c-104.06-89.81-207.55-180.29-312.73-268.78-4.8,5.66-9.71,11.23-14.43,17,104.33,89.49,210.35,177,315.8,265.19Z"/><path class="cls-4" d="M-452.68-107.23q-41.61-26.14-83.16-52.41l-10.83,16.06Q-504.26-118-461.9-92.3L-71.26,145.07,320,381.51l1.15-1.87L-65.5,135.74Z"/><path class="cls-4" d="M-122.91,249.82,299.43,424.71l.86-2-418.91-183L-537.95,57.78c-125.69-54.62-251-110-377.41-163.11-2.88,6.83-5.58,13.76-8.37,20.65C-798-30.51-671.23,21.31-544.82,73.93Z"/><path class="cls-4" d="M-158.21,361.16,285.63,470.52l.54-2.13L-155.49,350.54l-441.93-116.8c-132.1-35-235.5-64.21-368-97.57-1.82,7.2-3.56,14.42-5.28,21.65,132.12,34.54,236.39,60,368.94,92.92Z"/><path class="cls-4" d="M-176.36,476.54l455.24,41.33.21-2.18-454.36-50.07-454.47-49C-765.14,402-900.46,386.45-1036,373.43c-.71,7.4-1.43,14.79-2,22.21,135.39,14.2,271,25.91,406.57,38.47Z"/><path class="cls-4" d="M631.61-1097.22c-5.57,137-8.42,268.7-12.28,405.8L606.19-234.5l-12,457,2.19.08,20.81-456.64,19.71-456.68c6-137.06,12.72-268.6,17-405.72,1.17-24.62-2.86-37.37-9.57-37.37S632.34-1112.9,631.61-1097.22Z"/><path class="cls-4" d="M722.17-220.88,641.52,229.06l2.15.41,89.27-448.31,88.2-448.52C847.8-802.54,870.74-915.49,895.7-1051c-7.28-1.42-14.59-2.74-21.89-4.07-26.26,135.23-45.36,248.89-69.91,384.44Z"/><path class="cls-4" d="M834.78-190,687.35,242.72l2.07.73,155.7-429.78L999.79-616.48c46.86-130.07,94.56-259.84,139.75-390.5-7-2.51-14-4.93-21-7.34-46.49,130.18-90.48,261.25-135.3,392Z"/><path class="cls-4" d="M941.46-142.46,730.61,263.12l1.93,1,218.6-401.46,217.62-402c66.09-121.91,133-243.4,197.5-366.16-6.52-3.53-13.09-7-19.65-10.42-65.76,122.08-129.15,245.42-193.34,368.34Z"/><path class="cls-4" d="M1039.77-79.45,770.3,289.79l1.76,1.31,276.51-364,275.62-364.66c83.91-110.89,168.55-221.23,251-333.19-5.91-4.48-11.88-8.87-17.84-13.27-83.62,111.09-165.07,223.81-247.24,336Z"/><path class="cls-4" d="M1450.21-326.08,1127.49-2.36l-322,324.5,1.54,1.56L1135.2,5.43l327.35-319c99.83-97.18,200.3-193.72,298.85-292.2-5.16-5.33-10.38-10.59-15.6-15.83C1646.2-524.21,1548.53-424.82,1450.21-326.08Z"/><path class="cls-4" d="M1202.61,87,835.5,359.41l1.29,1.78L1209.06,95.91l371.62-266.16c113.37-81.1,215.64-152.93,327.94-235.51q-6.42-9.09-12.95-18.07c-113.21,81.41-213.17,156.5-325.31,239.39Z"/><path class="cls-4" d="M1263.42,186.73l-403.9,214,1,2,407.93-206.25L1675.9-10.75c124.15-63.06,248.72-125.3,372-190-3.3-6.63-6.62-13.27-10-19.84-124.06,63.39-246.86,129.21-370.09,194.23Z"/><path class="cls-4" d="M522.63-1065.87l5,146.56,9.25,228.36,36.69,913.46,1.1,0-29-913.73L538.52-919.7l-5-146.53c-.64-13.9-2-24.64-6.34-24.64S522.07-1078.13,522.63-1065.87Z"/><path class="cls-4" d="M275-1072.69l34.12,180.14,43.51,224.38L526.27,229.37l1.08-.21-166.16-899L319.74-894.56l-34.06-180.27c-2.26-12.29-5.64-23.7-9.87-22.86S272.81-1082.8,275-1072.69Z"/><polygon class="cls-4" points="107.22 -836.8 52.7 -992.05 40.31 -994.32 96.98 -833.2 173.75 -617.93 480.5 243.26 481.54 242.9 182.03 -620.84 107.22 -836.8"/><path class="cls-4" d="M4.52-541.35,437.34,263.89l1-.51-426-808.85L-94.18-747.72l-86.46-162.57c-3.22,1.72-6.4,3.5-9.6,5.24l86.48,162.43Z"/><path class="cls-4" d="M-151.27-440.18l549.05,731,.88-.66L-144.23-445.42-279.89-629.36l-110-147.76q-4.38,3.29-8.74,6.58l110,147.67Z"/><path class="cls-4" d="M-290.06-316.73l652.77,640,.77-.78L-283.89-323-445.68-484.4l-130.8-129.4c-2.56,2.61-5.17,5.15-7.71,7.78l130.88,129.34Z"/><path class="cls-4" d="M-408.7-173.8,332.93,360.74l.65-.88L-403.54-180.89-587.77-316.15l-148.51-108c-2.13,3-4.29,5.9-6.41,8.88l148.54,108Z"/><path class="cls-4" d="M-504.48-14.65,309.13,402.23l.5-1L-500.45-22.44l-202.48-106-162.5-84.17c-1.65,3.25-3.2,6.56-4.83,9.82l162.34,84Z"/><path class="cls-4" d="M-575.23,157.1,291.84,446.84l.35-1-864.61-297L-788.54,74.46-960.85,16c-1.15,3.47-2.25,7-3.37,10.42L-792,84.75Z"/><path class="cls-4" d="M-619.34,337.54l900.79,156,.2-1.08L-617.8,328.9l-224.85-41-177.89-31.62q-.91,5.4-1.81,10.79l177.8,31.52Z"/><path class="cls-4" d="M757.87-1067.89,740.75-911.26,716.36-684,618.5,224.92l1.09.13L725.08-683l26.46-227,17.21-156.66c2-17,2.56-28.23-2.44-28.59S758.9-1076.74,757.87-1067.89Z"/><path class="cls-4" d="M898.72-648.71,665.22,235.17l1.06.28L907.19-646.43,967.5-866.88l41.31-151.36c-3.52-1-7-1.88-10.58-2.82L957-869.7Z"/><path class="cls-4" d="M1073.68-586.36,709.87,252.32l1,.44,370.85-835.6L1174.5-791.7l75.12-171.08c-3.33-1.48-6.68-2.93-10-4.39l-75,171.11Z"/><path class="cls-4" d="M1237.28-498.4,751.42,276l.93.59,492.34-770.3,123.15-192.53L1468.5-845.1q-4.62-2.94-9.26-5.84L1358.67-692Z"/><path class="cls-4" d="M1385.78-386.83,789,305.66l.82.72L1392.4-381.08l150.72-171.81,124.07-142.66c-2.75-2.42-5.51-4.8-8.27-7.19L1534.92-560Z"/><path class="cls-4" d="M1515.8-254.19,821.58,340.63l.71.83,699.19-589,174.85-147.18,144.55-122.75q-3.51-4.2-7.06-8.36L1689.3-403Z"/><path class="cls-4" d="M1624.39-103.5,848.58,380.11l.58.93L1629-96l195-119.2,161.29-99.55c-1.89-3.12-3.76-6.26-5.66-9.37L1818.3-224.47Z"/><path class="cls-4" d="M1709.07,61.82,869.33,423.2l.43,1L1712.5,69.89l210.72-88.5,173.85-73.91c-1.39-3.37-2.78-6.75-4.19-10.11L1919-28.6Z"/></g></g></svg>