<svg xmlns="http://www.w3.org/2000/svg" xmlns:xlink="http://www.w3.org/1999/xlink" viewBox="0 0 1920 1080"><defs><style>.cls-1{fill:none;}.cls-2{isolation:isolate;}.cls-3{clip-path:url(#clip-path);}.cls-4{opacity:0.6;mix-blend-mode:overlay;}.cls-5{fill:#fce013;}</style><clipPath id="clip-path"><rect class="cls-1" width="1920" height="1080"/></clipPath></defs><title>sunshinegold-01</title><g class="cls-2"><g id="BIENVENIDO"><g class="cls-3"><g class="cls-4"><path class="cls-5" d="M1088.9,1637.85c-10-93.35-20.88-175.67-32.06-268.89l-37-310.56L982,747.91l-1.49.17,31.82,311.15,32.56,311.07c9.72,93.39,17.95,176,28.84,269.28,2.22,16.77,5.7,26.9,10.91,26S1090,1648.57,1088.9,1637.85Z"/><path class="cls-5" d="M1098.05,1042,1014,740.74l-1.45.39L1090.8,1044l79,302.63c23.7,91,46.81,182.09,71.64,272.76,4.91-1.31,9.81-2.62,14.71-4-24-90.88-49.65-181.3-74.75-271.87Z"/><path class="cls-5" d="M1172.94,1014,1044.47,728.84l-1.37.6,123,287.61,123.66,287.3c37.16,86.47,73.76,173.17,112,259.17,4.67-2,9.25-4.21,13.88-6.3-37.39-86.29-76.41-171.87-114.88-257.69Z"/><path class="cls-5" d="M1242.77,975.12,1072.84,712.49l-1.27.8,164.86,265.84,165.49,265.43c49.77,79.94,99,160.19,149.81,239.49,4.3-2.71,8.55-5.48,12.81-8.25-50-79.75-101.48-158.54-152.47-237.66Z"/><path class="cls-5" d="M1503.84,1168.59c49.5,57.83,98.66,116,148.5,173.49l23.24,3c-53.77-61.84-108.42-122.91-162.67-184.33L1306,926.14,1098.42,692.06l-1.13,1,203,238Z"/><path class="cls-5" d="M1361,868.22,1120.64,668l-1,1.15,236.5,204.78,237,204.21c71.23,61.45,142.07,123.36,214.06,183.91,3.29-3.88,6.65-7.69,9.88-11.61-71.42-61.23-144-121.11-216.17-181.45Z"/><path class="cls-5" d="M1667.86,975.31q28.48,17.88,56.92,35.86l7.42-11q-29-17.52-58-35.09L1406.78,802.68,1139,640.9l-.79,1.28,264.63,166.88Z"/><path class="cls-5" d="M1724.78,1011.17c55.94,35.29,125.68,79.17,182.12,113.64,2.68-4.35,5.26-8.76,7.88-13.15-56.13-35-126-77.28-182.58-111.48Z"/><path class="cls-5" d="M1442.13,731,1153,611.34l-.59,1.38,286.74,125.19,287,124.49c86,37.38,171.84,75.31,258.34,111.61,2-4.68,3.82-9.42,5.73-14.13-86.08-37.07-172.84-72.52-259.37-108.52Z"/><path class="cls-5" d="M1466.3,654.82,1162.49,580l-.38,1.45,302.32,80.64L1766.94,742c90.42,24,161.2,43.94,251.91,66.77q1.86-7.39,3.61-14.82c-90.44-23.63-161.81-41.05-252.54-63.57Z"/><path class="cls-5" d="M1478.72,575.88l-311.61-28.29-.15,1.5,311,34.25,311.09,33.52c92.68,10,185.31,20.66,278.11,29.56.48-5,1-10.11,1.39-15.19-92.67-9.72-185.51-17.73-278.3-26.32Z"/><path class="cls-5" d="M925.66,1652.69c3.81-93.77,5.76-183.85,8.41-277.66l9-312.64,8.24-312.66-1.5-.05-14.24,312.44-13.5,312.48c-4.1,93.78-8.7,183.78-11.64,277.61-.8,16.84,2,25.56,6.55,25.56S925.16,1663.42,925.66,1652.69Z"/><path class="cls-5" d="M863.67,1053.07l55.21-307.86-1.48-.28-61.1,306.75-60.37,306.89c-18.25,92.49-34,169.77-51,262.48,5,1,10,1.88,15,2.79,18-92.53,31-170.29,47.86-263Z"/><path class="cls-5" d="M786.59,1031.92,887.5,735.86l-1.41-.5L779.51,1029.43,673.63,1323.75c-32.07,89-64.72,177.79-95.65,267.19,4.78,1.72,9.57,3.38,14.38,5,31.82-89.08,61.92-178.76,92.6-268.24Z"/><path class="cls-5" d="M713.57,999.42,857.89,721.91l-1.32-.71L706.94,995.89,558,1270.94c-45.24,83.41-91,166.54-135.19,250.53,4.46,2.42,8.95,4.78,13.45,7.13,45-83.53,88.4-167.92,132.34-252Z"/><path class="cls-5" d="M646.27,956.3,830.72,703.65l-1.2-.89L640.25,951.82,451.58,1201.33c-57.43,75.87-115.37,151.37-171.81,228,4,3.06,8.13,6.07,12.21,9.08,57.24-76,113-153.14,169.24-229.89Z"/><path class="cls-5" d="M365.32,1125.05,586.23,903.56l220.37-222-1.05-1.06L581,898.22l-224.07,218.3c-68.34,66.5-137.11,132.55-204.57,199.93,3.53,3.65,7.1,7.24,10.68,10.83C231.17,1260.61,298,1192.61,365.32,1125.05Z"/><path class="cls-5" d="M534.81,842.38,786.09,656l-.88-1.22L530.39,836.31,276,1018.43c-77.61,55.49-147.61,104.64-224.48,161.14q4.4,6.23,8.86,12.36c77.5-55.7,145.92-107.08,222.68-163.79Z"/><path class="cls-5" d="M493.18,774.17,769.65,627.72l-.69-1.33L489.73,767.51,210.84,909.3c-85,43.14-170.25,85.73-254.66,130,2.26,4.54,4.53,9.08,6.85,13.58C48,1009.48,132,964.44,216.36,920Z"/><path class="cls-5" d="M1000.26,1631.24,996.8,1531l-6.33-156.26-25.11-625-.75,0,19.86,625.2,4.91,156.3,3.39,100.26c.44,9.51,1.36,16.86,4.35,16.86S1000.64,1639.62,1000.26,1631.24Z"/><path class="cls-5" d="M1169.8,1635.91l-23.36-123.27-29.78-153.52L997.76,745l-.73.14,113.73,615.1L1139.14,1514l23.31,123.35c1.54,8.4,3.86,16.22,6.75,15.64S1171.26,1642.82,1169.8,1635.91Z"/><polygon class="cls-5" points="1284.6 1474.5 1321.92 1580.72 1330.41 1582.28 1291.61 1472.04 1239.07 1324.74 1029.09 735.49 1028.38 735.74 1233.4 1326.73 1284.6 1474.5"/><path class="cls-5" d="M1354.91,1272.35l-296.27-551-.67.35,291.64,553.43,72.85,138.39,59.19,111.24c2.2-1.18,4.38-2.4,6.57-3.59L1429,1410.06Z"/><path class="cls-5" d="M1461.54,1203.12,1085.72,703l-.61.45,371.62,503.28,92.85,125.85,75.28,101.11,6-4.51-75.3-101Z"/><path class="cls-5" d="M1556.55,1118.65,1109.72,680.72l-.53.54,443.13,441.66,110.75,110.46,89.53,88.54c1.75-1.79,3.54-3.53,5.28-5.32l-89.59-88.5Z"/><path class="cls-5" d="M1637.75,1020.86,1130.1,655.11l-.44.6,504.56,370,126.11,92.55L1862,1192.19c1.46-2,2.94-4,4.38-6.08l-101.67-73.86Z"/><path class="cls-5" d="M1703.32,912,1146.4,626.72l-.35.66,554.51,289.91,138.6,72.53,111.23,57.59c1.13-2.22,2.19-4.49,3.31-6.72l-111.13-57.47Z"/><path class="cls-5" d="M1751.75,794.44,1158.23,596.2l-.24.71,591.83,203.22L1897.76,851l118,40c.78-2.37,1.53-4.75,2.3-7.13L1900.14,844Z"/><path class="cls-5" d="M1781.94,671l-616.6-106.73-.13.74,615.68,111.9,153.91,28,121.76,21.64c.42-2.46.84-4.92,1.24-7.39l-121.7-21.56Z"/><path class="cls-5" d="M1481.81,536.05l-312.9-1.33,0,1.5,312.81,7.33,312.82,6.58c93.8,2,187.58,4.66,281.38,5.52.06-5.08,0-10.16,0-15.25-93.71-1.73-187.44-1.7-281.17-2.27Z"/><path class="cls-5" d="M1166.69,506.63l.2,1.49s786.45-100.69,879.05-113.89c-.71-5-1.48-10.06-2.26-15.08C1951,391.51,1166.69,506.63,1166.69,506.63Z"/><path class="cls-5" d="M1160.84,478.74l.47,1.43s774-246.29,862.42-275.74c-1.61-4.82-3.2-9.65-4.88-14.45C1930.19,218.64,1160.84,478.74,1160.84,478.74Z"/><path class="cls-5" d="M1792.71,479.85,1168.3,521l0,.75,624.73-35.92,156.19-8.93,124.31-7.64c-.17-2.49-.38-5-.56-7.46l-124.21,7.69Z"/><path class="cls-5" d="M1165.21,493.27l.17.74L2049,294.52c-.57-2.43-1.15-4.85-1.75-7.28Z"/><path class="cls-5" d="M460.29,691.4l299-92.17.46,1.43L462.57,698.55,165.16,795.72c-88.59,29-177,58.56-265.95,86.49-1.52-4.85-3-9.7-4.51-14.58,88.65-28.69,177.82-55.74,266.82-83.35Z"/><path class="cls-5" d="M449,653.07,754.86,587l.33,1.46L450.68,660.39,146,731.57C54.66,753-36.55,775-128.14,795.21c-1.11-5-2.08-10-3.12-14.93,91.32-21.09,183-40.46,274.61-60.41Z"/><path class="cls-5" d="M751.22,559.07l.11,1.5s-790.26,64.27-883.6,70.51c-.34-5.07-.63-10.14-.9-15.22C-40,608.77,751.22,559.07,751.22,559.07Z"/><path class="cls-5" d="M133.21,662.44l619.41-89,.11.74L134.09,668.37-20.56,692l-123.2,18.25c-.35-2.47-.66-5-1-7.42l123.1-18.18Z"/><path class="cls-5" d="M749.9,545.7l0,.75-905.8-12.28c.06-2.49.12-5,.2-7.48Z"/><path class="cls-5" d="M839.23,1632.62,851,1525.45,867.64,1370l67-621.92-.74-.08L861.68,1369.3l-18.11,155.32-11.78,107.2c-1.39,11.61-1.76,19.31,1.67,19.56S838.53,1638.67,839.23,1632.62Z"/><path class="cls-5" d="M742.82,1345.8,902.65,741l-.72-.19L737,1344.24l-41.28,150.84-28.27,103.57,7.24,1.93L702.92,1497Z"/><path class="cls-5" d="M623.06,1303.14l249-573.85-.69-.3L617.56,1300.73,554,1443.64,502.63,1560.7c2.28,1,4.57,2,6.86,3l51.36-117.07Z"/><path class="cls-5" d="M511.08,1243,843.65,713.09l-.64-.4L506,1239.75l-84.3,131.73-68.89,108.7c2.1,1.34,4.22,2.67,6.33,4L428,1375.46Z"/><path class="cls-5" d="M409.43,1166.62,818,692.8l-.57-.5-412.5,470.38L301.73,1280.24l-84.93,97.62c1.88,1.65,3.77,3.28,5.66,4.91l84.88-97.66Z"/><path class="cls-5" d="M320.43,1075.86l475.19-407-.48-.57-478.6,403L196.85,1172l-98.94,84q2.4,2.87,4.83,5.72l98.92-84Z"/><path class="cls-5" d="M246.1,972.75l531-330.89-.39-.64L242.94,967.65l-133.48,81.56L-.94,1117.32c1.29,2.14,2.57,4.28,3.87,6.41l110.44-68.2Z"/><path class="cls-5" d="M188.13,859.64,762.94,612.37l-.3-.69L185.78,854.12,41.55,914.67l-119,50.57q1.42,3.46,2.87,6.92l119-50.65Z"/><path class="cls-5" d="M828.85-557.85c10,93.35,20.88,175.67,32,268.89l37,310.56,37.78,310.49,1.49-.17L905.4,20.77,872.83-290.3c-9.72-93.39-18-176-28.84-269.28-2.22-16.77-5.69-26.9-10.9-26S827.79-568.57,828.85-557.85Z"/><path class="cls-5" d="M819.69,38l84.08,301.26,1.45-.39L826.94,36.05l-79-302.63c-23.69-91-46.81-182.09-71.64-272.76-4.9,1.31-9.81,2.62-14.71,4,24,90.88,49.65,181.3,74.75,271.87Z"/><path class="cls-5" d="M744.8,66,873.27,351.16l1.37-.6L751.67,63,628-224.35c-37.15-86.47-73.76-173.17-112-259.17-4.67,2-9.25,4.21-13.88,6.3C539.52-390.93,578.54-305.35,617-219.53Z"/><path class="cls-5" d="M675,104.88,844.9,367.51l1.27-.8L681.31,100.87,515.82-164.56C466.05-244.5,416.79-324.75,366-404c-4.3,2.71-8.55,5.48-12.81,8.25,50,79.75,101.48,158.54,152.47,237.66Z"/><path class="cls-5" d="M413.9-88.59c-49.5-57.83-98.65-116-148.5-173.49l-23.24-3C295.93-203.2,350.58-142.13,404.84-80.71l207,234.57L819.32,387.94l1.13-1-203-238Z"/><path class="cls-5" d="M556.71,211.78,797.1,412l1-1.15L561.57,206.06,324.58,1.85C253.35-59.6,182.5-121.51,110.51-182.06c-3.29,3.88-6.65,7.69-9.88,11.61C172.05-109.22,244.62-49.34,316.8,11Z"/><path class="cls-5" d="M249.88,104.69Q221.4,86.81,193,68.83l-7.41,11q29,17.52,58,35.09L511,277.32,778.76,439.1l.79-1.28L514.91,270.94Z"/><path class="cls-5" d="M193,68.83C137,33.54,67.28-10.34,10.84-44.81,8.16-40.46,5.58-36,3-31.66c56.12,35,126,77.28,182.58,111.48Z"/><path class="cls-5" d="M475.61,349,764.7,468.66l.59-1.38L478.55,342.09l-287-124.49C105.48,180.22,19.67,142.29-66.82,106c-2,4.68-3.82,9.42-5.74,14.13,86.08,37.07,172.84,72.52,259.37,108.52Z"/><path class="cls-5" d="M451.45,425.18,755.26,500l.37-1.45L453.31,417.91,150.81,338c-90.43-23.95-161.2-43.94-251.91-66.77-1.25,4.93-2.44,9.87-3.62,14.82,90.44,23.63,161.81,41.05,252.54,63.57Z"/><path class="cls-5" d="M439,504.12l311.62,28.29.15-1.5-311-34.25L128.68,463.14c-92.68-10-185.31-20.66-278.1-29.56-.49,5.05-1,10.11-1.4,15.19,92.67,9.72,185.52,17.73,278.3,26.32Z"/><path class="cls-5" d="M992.08-572.69c-3.81,93.77-5.76,183.85-8.4,277.66l-9,312.64-8.24,312.66,1.5.05L982.18,17.88l13.5-312.48c4.1-93.78,8.71-183.78,11.64-277.61.8-16.84-2-25.56-6.55-25.56S992.58-583.42,992.08-572.69Z"/><path class="cls-5" d="M1054.07,26.93l-55.2,307.86,1.47.28,61.11-306.75,60.37-306.89c18.25-92.49,34-169.77,51-262.48-5-1-10-1.88-15-2.79-18,92.53-31,170.29-47.85,263Z"/><path class="cls-5" d="M1131.15,48.08,1030.24,344.14l1.41.5L1138.24,50.57l105.87-294.32c32.07-89,64.72-177.79,95.65-267.19-4.77-1.72-9.57-3.38-14.37-5-31.83,89.08-61.93,178.76-92.61,268.24Z"/><path class="cls-5" d="M1204.17,80.58,1059.85,358.09l1.32.71L1210.8,84.11l149-275c45.24-83.41,91-166.54,135.18-250.53-4.46-2.42-9-4.78-13.45-7.13-45,83.53-88.4,167.92-132.34,252Z"/><path class="cls-5" d="M1271.47,123.7,1087,376.35l1.21.89,189.26-249.06,188.67-249.51c57.44-75.87,115.37-151.37,171.82-228-4-3.06-8.13-6.07-12.22-9.08-57.24,76-113,153.14-169.23,229.89Z"/><path class="cls-5" d="M1552.42-45l-220.9,221.49-220.38,222,1,1.06,224.6-217.76,224.07-218.3C1629.2-103,1698-169.07,1765.43-236.45c-3.53-3.65-7.1-7.24-10.68-10.83C1686.58-180.61,1619.72-112.61,1552.42-45Z"/><path class="cls-5" d="M1382.94,237.62,1131.65,424l.88,1.22,254.82-181.51L1641.73,61.57c77.6-55.49,147.6-104.64,224.47-161.14q-4.4-6.23-8.86-12.36c-77.5,55.7-145.92,107.08-222.68,163.79Z"/><path class="cls-5" d="M1424.56,305.83,1148.09,452.28l.69,1.33L1428,312.49l278.9-141.79c85-43.14,170.25-85.73,254.66-130-2.27-4.54-4.54-9.08-6.86-13.58-84.92,43.38-169,88.42-253.33,132.9Z"/><path class="cls-5" d="M917.48-551.24,920.94-451l6.33,156.26,25.11,625,.75,0-19.86-625.2-4.91-156.3L925-551.48c-.44-9.51-1.36-16.86-4.34-16.86S917.1-559.62,917.48-551.24Z"/><path class="cls-5" d="M748-555.91,771.3-432.64l29.78,153.52L920,335l.74-.14L807-280.24,778.6-434,755.29-557.37c-1.54-8.4-3.86-16.22-6.75-15.64S746.49-562.82,748-555.91Z"/><polygon class="cls-5" points="633.14 -394.5 595.82 -500.72 587.34 -502.28 626.13 -392.04 678.68 -244.74 888.65 344.51 889.36 344.26 684.34 -246.73 633.14 -394.5"/><path class="cls-5" d="M562.83-192.35l296.28,551,.66-.35L568.14-195.16,495.28-333.55,436.1-444.79c-2.21,1.18-4.38,2.4-6.58,3.59l59.2,111.14Z"/><path class="cls-5" d="M456.2-123.12,832,377l.6-.45L461-126.71,368.16-252.56,292.88-353.67l-6,4.51,75.3,101Z"/><path class="cls-5" d="M361.2-38.65,808,399.28l.53-.54L365.42-42.92,254.68-153.38l-89.54-88.54c-1.75,1.79-3.54,3.53-5.27,5.32l89.58,88.5Z"/><path class="cls-5" d="M280,59.14,787.64,424.89l.44-.6-504.56-370L157.41-38.26,55.76-112.19c-1.46,2-2.94,4-4.39,6.08L153-32.25Z"/><path class="cls-5" d="M214.42,168,771.34,453.28l.35-.66L217.18,162.71,78.58,90.18-32.65,32.59c-1.13,2.22-2.19,4.49-3.31,6.72L75.17,96.78Z"/><path class="cls-5" d="M166,285.56,759.51,483.8l.24-.71L167.92,279.87,20,229-98,189c-.78,2.37-1.53,4.75-2.3,7.13L17.6,236.05Z"/><path class="cls-5" d="M135.81,409,752.4,515.75l.13-.74L136.86,403.11-17,375.08l-121.77-21.64c-.42,2.46-.84,4.92-1.24,7.39l121.71,21.56Z"/><path class="cls-5" d="M1078.51-552.62l-11.72,107.17L1050.1-290,983.11,332l.75.08,72.21-621.34,18.11-155.32L1086-551.82c1.38-11.61,1.75-19.31-1.68-19.56S1079.21-558.67,1078.51-552.62Z"/><path class="cls-5" d="M1174.92-265.8,1015.09,339l.72.19,164.91-603.4L1222-415.08l28.28-103.57-7.24-1.93L1214.82-417Z"/><path class="cls-5" d="M1294.69-223.14l-249,573.85.69.3,253.84-571.74,63.52-142.91,51.42-117.06-6.87-3-51.36,117.07Z"/><path class="cls-5" d="M1406.67-163,1074.1,366.91l.63.4,337-527.06L1496-291.48l68.9-108.7-6.34-4-68.84,108.72Z"/><path class="cls-5" d="M1508.32-86.62,1099.78,387.2l.57.5,412.5-470.38L1616-200.24l84.93-97.62c-1.88-1.65-3.77-3.28-5.65-4.91l-84.88,97.66Z"/><path class="cls-5" d="M1597.32,4.14l-475.2,407,.48.57,478.61-403L1720.89-92l98.94-84q-2.4-2.86-4.82-5.72l-98.93,84Z"/><path class="cls-5" d="M1671.65,107.25,1140.6,438.14l.4.64,533.8-326.43,133.48-81.56,110.4-68.11c-1.29-2.14-2.57-4.28-3.87-6.41l-110.43,68.2Z"/><path class="cls-5" d="M1729.61,220.36l-574.8,247.27.29.69L1732,225.88l144.24-60.55,119-50.57c-1-2.31-1.9-4.62-2.87-6.92l-119,50.65Z"/></g></g></g></g></svg>
